<?xml version="1.0" encoding="iso-8859-1"?>
<!-- Generator: Adobe Illustrator 19.0.0, SVG Export Plug-In . SVG Version: 6.00 Build 0)  -->
<svg version="1.1" id="Capa_1" xmlns="http://www.w3.org/2000/svg" xmlns:xlink="http://www.w3.org/1999/xlink" x="0px" y="0px"
	 viewBox="0 0 512 512" style="enable-background:new 0 0 512 512;" xml:space="preserve">
<g>
	<g>
		<path d="M411,0H101C65.159,0,36,29.159,36,65v90c0,34.157,26.489,62.224,60,64.789V220c14.888,0,27.542,12.411,28.367,27.439
			L80.876,432.098c-4.581,19.449-0.095,39.587,12.31,55.252c12.403,15.666,30.978,24.65,50.959,24.65h223.711
			c19.981,0,38.556-8.984,50.959-24.65c12.404-15.665,16.891-35.803,12.31-55.252l-43.491-184.659
			C388.458,232.411,401.112,220,416,220v-0.211c33.511-2.564,60-30.631,60-64.789V65C476,29.159,446.841,0,411,0z M381.643,30
			C375.291,49.702,356.788,64,335,64c-21.788,0-40.291-14.298-46.643-34H381.643z M401.923,438.976
			c2.467,10.472,0.051,21.316-6.628,29.751c-6.679,8.435-16.681,13.273-27.44,13.273h-223.71c-10.759,0-20.761-4.838-27.439-13.273
			c-6.678-8.435-9.095-19.279-6.628-29.751l19.652-83.44C140.583,366.323,155.525,373,172,373c33.084,0,60-26.916,60-60
			s-26.916-60-60-60c-6.58,0-12.91,1.08-18.839,3.047l1.249-5.304V249c0-10.537-2.762-20.429-7.573-29h218.326
			c-4.811,8.571-7.573,18.463-7.573,29v1.743L401.923,438.976z M142,313c0-16.542,13.458-30,30-30s30,13.458,30,30s-13.458,30-30,30
			S142,329.542,142,313z M446,155c0,19.299-15.701,35-35,35H101c-19.299,0-35-15.701-35-35V65c0-19.299,15.701-35,35-35h156.447
			c7.029,36.41,39.122,64,77.553,64c38.417,0,70.502-27.571,77.546-63.961C431.13,30.852,446,46.219,446,65V155z"/>
	</g>
</g>
<g>
	<g>
		<path d="M312,351c-24.813,0-45,20.187-45,45s20.187,45,45,45s45-20.187,45-45S336.813,351,312,351z M312,411
			c-8.271,0-15-6.729-15-15s6.729-15,15-15s15,6.729,15,15S320.271,411,312,411z"/>
	</g>
</g>
<g>
	<g>
		<path d="M179,66c-24.813,0-45,20.187-45,45s20.187,45,45,45s45-20.187,45-45S203.813,66,179,66z M179,126c-8.271,0-15-6.729-15-15
			s6.729-15,15-15s15,6.729,15,15S187.271,126,179,126z"/>
	</g>
</g>
<g>
</g>
<g>
</g>
<g>
</g>
<g>
</g>
<g>
</g>
<g>
</g>
<g>
</g>
<g>
</g>
<g>
</g>
<g>
</g>
<g>
</g>
<g>
</g>
<g>
</g>
<g>
</g>
<g>
</g>
</svg>
